# AST/ASF file generated using VICON BodyLanguage
# -----------------------------------------------
:version 1.10
:name VICON
:units
  mass 1.0
  length 0.45
  angle deg
:documentation
   .ast/.asf automatically generated from VICON data using
   VICON BodyBuilder and BodyLanguage model FoxedUp or BRILLIANT.MOD
:root
   order TX TY TZ RX RY RZ
   axis XYZ
   position 0 0 0  
   orientation 0 0 0 
:bonedata
  begin
     id 1 
     name lhipjoint
     direction 0.711131 -0.61297 0.344326 
     length 2.29162 
     axis 0 0 0  XYZ
  end
  begin
     id 2 
     name lfemur
     direction 0.34202 -0.939693 0  
     length 6.71424  
     axis 0 0 20  XYZ
    dof rx ry rz
    limits (-160.0 20.0)
           (-70.0 70.0)
           (-60.0 70.0)
  end
  begin
     id 3 
     name ltibia
     direction 0.34202 -0.939693 0   
     length 6.7087   
     axis 0 0 20   XYZ
    dof rx
    limits (-10.0 170.0)
  end
  begin
     id 4 
     name lfoot
     direction 0.0230374 -0.0632947 0.997729   
     length 1.56743   
     axis -90 7.62852e-016 20   XYZ
    dof rx rz
    limits (-45.0 90.0)
           (-70.0 20.0)
  end
  begin
     id 5 
     name ltoes
     direction 1.53585e-011 -4.21885e-011 1   
     length 0.802914   
     axis -90 7.62852e-016 20   XYZ
    dof rx
    limits (-90.0 20.0)
  end
  begin
     id 6 
     name rhipjoint
     direction -0.733192 -0.592884 0.333043   
     length 2.36925  
     axis 0 0 0  XYZ 
  end
  begin
     id 7 
     name rfemur
     direction -0.34202 -0.939693 0   
     length 6.67027   
     axis 0 0 -20   XYZ
    dof rx ry rz
    limits (-160.0 20.0)
           (-70.0 70.0)
           (-70.0 60.0)
  end
  begin
     id 8 
     name rtibia
     direction -0.34202 -0.939693 0   
     length 6.6862   
     axis 0 0 -20   XYZ
    dof rx
    limits (-10.0 170.0)
 end
 begin
     id 9 
     name rfoot
     direction -0.0949739 -0.260939 0.960672   
     length 1.67698  
     axis -90 -7.62852e-016 -20   XYZ
    dof rx rz
    limits (-45.0 90.0)
           (-20.0 70.0)
  end
  begin
     id 10 
     name rtoes
     direction -1.5353e-011 -4.21868e-011 1   
     length 0.846298   
     axis -90 -7.62852e-016 -20   XYZ
    dof rx
    limits (-90.0 20.0)
  end
  begin
     id 11 
     name lowerback
     direction -0.0206828 0.999785 -0.00109866   
     length 2.04382   
     axis 0 0 0   XYZ
    dof rx ry rz
    limits (-20.0 45.0)
           (-30.0 30.0)
           (-30.0 30.0)
  end
  begin
     id 12 
     name upperback
     direction -0.0105003 0.999727 -0.0208904   
     length 2.04538   
     axis 0 0 0   XYZ
    dof rx ry rz
    limits (-20.0 45.0)
           (-30.0 30.0)
           (-30.0 30.0)
  end
  begin
     id 13 
     name thorax
     direction -0.000416255 0.999808 -0.0196023   
     length 2.0399   
     axis 0 0 0   XYZ
    dof rx ry rz
    limits (-20.0 45.0)
           (-30.0 30.0)
           (-30.0 30.0)
  end
  begin
     id 14 
     name lowerneck
     direction 0.0627861 0.989205 0.13241   
     length 1.46207   
     axis 0 0 0   XYZ
    dof rx ry rz
    limits (-20.0 45.0)
           (-30.0 30.0)
           (-30.0 30.0)
  end
  begin
     id 15 
     name upperneck
     direction 0.00627179 0.994526 0.104303   
     length 1.41419   
     axis 0 0 0   XYZ
    dof rx ry rz
    limits (-20.0 45.0)
           (-30.0 30.0)
           (-30.0 30.0)
  end
  begin
     id 16
     name head
     direction -0.00443838 0.999688 0.0245968  
     length 1.50718  
     axis 0 0 0   XYZ
    dof rx ry rz
    limits (-20.0 45.0)
           (-30.0 30.0)
           (-30.0 30.0)
  end
  begin
     id 17 
     name lclavicle
     direction 0.758742 0.650995 -0.0227258  
     length 2.86888  
     axis 0 0 0   XYZ
    dof ry rz
    limits (-20.0 10.0)
           (0.0 20.0)
  end
  begin
     id 18 
     name lhumerus
     direction 1 -4.48962e-011 1.06664e-027   
     length 4.65776   
     axis -180 -30 -90   XYZ
    dof rx ry rz
    limits (-60.0 90.0)
           (-90.0 90.0)
           (-90.0 90.0)
  end
  begin
     id 19
     name lradius
     direction 1 -4.48968e-011 1.40404e-026   
     length 3.55539   
     axis -180 -30 -90   XYZ
    dof rx
    limits (-10.0 170.0)
  end
  begin
     id 20
     name lwrist
     direction 1 -4.48976e-011 3.32647e-026   
     length 1.77769   
     axis -2.20186e-014 90 90   XYZ
    dof ry
    limits (-180.0 0.0)
 end
  begin
     id 21 
     name lhand
     direction 1 -4.48982e-011 6.65293e-026   
     length 0.707264   
     axis -4.24514e-014 90 90   XYZ
    dof rx rz
    limits (-90.0 90.0)
           (-45.0 45.0)
  end
  begin
     id 22 
     name lfingers
     direction 1 -4.48966e-011 1.33059e-025   
     length 0.570215   
     axis -8.49028e-014 90 90   XYZ
    dof rx
    limits (0.0 90.0)
  end
  begin
     id 23
     name lthumb
     direction 0.707107 -6.3493e-011 0.707107   
     length 0.818718   
     axis -90 45 2.85299e-015   XYZ
    dof rx rz
    limits (-45.0 45.0)
           (-45.0 45.0)
  end
  begin
     id 24 
     name rclavicle
     direction -0.870343 0.482028 -0.100759   
     length 3.2251  
     axis 0 0 0   XYZ 
    dof ry rz
    limits (-10.0 20.0)
           (-20.0 0.0)
  end
  begin
     id 25 
     name rhumerus
     direction -1 -4.48974e-011 -9.45849e-028  
     length 4.71925   
     axis -180 30 90   XYZ
    dof rx ry rz
    limits (-90.0 60.0)
           (-90.0 90.0)
           (-90.0 90.0)
  end
  begin
     id 26 
     name rradius
     direction -1 -4.48965e-011 1.17607e-026   
     length 3.5699   
     axis -180 30 90   XYZ
    dof rx
    limits (-10.0 170.0)
  end
  begin
     id 27 
     name rwrist
     direction -1 -4.48968e-011 3.32647e-026   
     length 1.78495   
     axis -2.20186e-014 -90 -90   XYZ
    dof ry
    limits (-180.0 0.0)
  end
  begin
     id 28
     name rhand
     direction -1 -4.48995e-011 6.65293e-026   
     length 0.507757   
     axis -4.24514e-014 -90 -90   XYZ
    dof rx rz
    limits (-90.0 90.0)
           (-45.0 45.0)
  end
  begin
     id 29
     name rfingers
     direction -1 -4.48864e-011 1.33059e-025   
     length 0.409367   
     axis -8.49028e-014 -90 -90   XYZ
    dof rx
    limits (0.0 90.0)
  end
  begin
     id 30
     name rthumb
     direction -0.707107 -6.3494e-011 0.707107   
     length 0.587771   
     axis -90 -45 -2.85299e-015   XYZ
    dof rx rz
    limits (-45.0 45.0)
           (-45.0 45.0)
  end
:hierarchy
  begin
    root lhipjoint rhipjoint lowerback
    lhipjoint lfemur
    lfemur ltibia
    ltibia lfoot
    lfoot ltoes
    rhipjoint rfemur
    rfemur rtibia
    rtibia rfoot
    rfoot rtoes
    lowerback upperback
    upperback thorax
    thorax lowerneck lclavicle rclavicle
    lowerneck upperneck
    upperneck head
    lclavicle lhumerus
    lhumerus lradius
    lradius lwrist
    lwrist lhand lthumb
    lhand lfingers
    rclavicle rhumerus
    rhumerus rradius
    rradius rwrist
    rwrist rhand rthumb
    rhand rfingers
  end

#!OML:ASF E:\Steps\Project 1\Capture day 1\Session 2\Subject.ASF
:FULLY-SPECIFIED
:DEGREES
1
root 9.29907 16.328 18.807 -152.98 -1.46603 179.717
lowerback -29.8805 -1.16282 -6.09661
upperback -2.72828 -0.418383 -0.221873
thorax 12.643 -0.888698 2.81894
lowerneck 0.0344113 0.14911 -4.14622
upperneck 8.93889 -0.634325 6.87386
head 2.9275 -0.414689 2.98205
rclavicle 3.926e-015 1.19271e-015
rhumerus -34.1639 -26.3741 -76.3496
rradius 23.7406
rwrist 8.65951
rhand -7.96027 -44.7549
rfingers 7.12502
rthumb 17.9471 -73.9468
lclavicle 3.926e-015 1.19271e-015
lhumerus -27.8456 4.88992 83.6692
lradius 17.0008
lwrist -12.0328
lhand -22.5946 -13.1871
lfingers 7.12502
lthumb 3.83462 16.7582
rfemur -25.0201 8.09246 18.8229
rtibia 7.19753
rfoot -17.7823 -4.22359
rtoes -33.4574
lfemur -25.2555 -10.2066 -16.9478
ltibia 8.192
lfoot -7.73099 1.88967
ltoes -44.2468
2
root 9.2995 16.3295 18.8057 -153.024 -1.45417 179.743
lowerback -29.8083 -1.11797 -6.09977
upperback -2.73487 -0.359596 -0.239755
thorax 12.5982 -0.859585 2.82505
lowerneck 0.107398 0.115478 -4.0676
upperneck 8.92024 -0.684372 6.85672
head 2.90963 -0.439862 2.95915
rclavicle -2.18663e-015 2.22639e-014
rhumerus -34.2394 -26.4263 -76.3245
rradius 23.78
rwrist 8.57895
rhand -7.97096 -44.8438
rfingers 7.12502
rthumb 17.9368 -74.0367
lclavicle -2.18663e-015 2.22639e-014
lhumerus -27.9022 4.78424 83.7064
lradius 17.0776
lwrist -11.9382
lhand -22.2432 -13.1121
lfingers 7.12502
lthumb 4.17388 16.8268
rfemur -24.9211 8.24482 18.8031
rtibia 7.11387
rfoot -17.7994 -4.17043
rtoes -32.6186
lfemur -25.1813 -10.1551 -16.9404
ltibia 8.15555
lfoot -7.65152 1.89239
ltoes -45.1628
3
root 9.29861 16.3288 18.8043 -153.005 -1.48163 179.765
lowerback -29.8147 -1.11495 -6.04822
upperback -2.72104 -0.36953 -0.232976
thorax 12.6184 -0.861191 2.80093
lowerneck 0.0659206 0.113235 -4.11653
upperneck 8.92716 -0.684752 6.87269
head 2.92053 -0.439722 2.97441
rclavicle -5.1684e-015 1.51076e-014
rhumerus -34.1816 -26.4139 -76.3474
rradius 23.7795
rwrist 8.59617
rhand -7.93379 -44.9237
rfingers 7.12502
rthumb 17.9725 -74.1133
lclavicle -5.1684e-015 1.51076e-014
lhumerus -27.9008 4.73465 83.7658
lradius 17.145
lwrist -11.7648
lhand -21.9165 -13.0734
lfingers 7.12502
lthumb 4.48944 16.859
rfemur -24.9099 8.34882 18.7875
rtibia 7.07288
rfoot -17.8621 -4.24012
rtoes -32.2862
lfemur -25.1942 -10.137 -16.9254
ltibia 8.16475
lfoot -7.61961 1.89309
ltoes -45.8997
4
root 9.29733 16.327 18.802 -152.983 -1.49621 179.756
lowerback -29.8651 -1.11439 -6.02771
upperback -2.69527 -0.36675 -0.247457
thorax 12.6698 -0.859482 2.77464
lowerneck 0.0731801 0.1109 -4.1195
upperneck 8.92906 -0.688829 6.87547
head 2.92016 -0.442061 2.97581
rclavicle -6.80837e-015 -7.15625e-015
rhumerus -34.142 -26.3833 -76.4018
rradius 23.8208
rwrist 8.60704
rhand -7.8885 -44.9785
rfingers 7.12502
rthumb 18.0161 -74.164
lclavicle -6.80837e-015 -7.15625e-015
lhumerus -27.867 4.66746 83.7832
lradius 17.121
lwrist -11.7093
lhand -22.6394 -13.163
lfingers 7.12502
lthumb 3.79129 16.7831
rfemur -24.9256 8.3199 18.8047
rtibia 7.08783
rfoot -17.824 -4.43412
rtoes -33.265
lfemur -25.2032 -10.1628 -16.9445
ltibia 8.19297
lfoot -7.68775 1.92082
ltoes -46.1315
5
root 9.29729 16.3276 18.8014 -153.018 -1.49477 179.739
lowerback -29.8394 -1.15776 -6.04823
upperback -2.65826 -0.412478 -0.215673
thorax 12.7053 -0.879948 2.80357
lowerneck 0.065553 0.125311 -4.15763
upperneck 8.93469 -0.667774 6.87382
head 2.92254 -0.432558 2.98309
rclavicle 1.44119e-015 -1.94809e-014
rhumerus -34.0676 -26.2459 -76.4524
rradius 23.8498
rwrist 8.59157
rhand -7.81065 -44.9701
rfingers 7.12502
rthumb 18.091 -74.1487
lclavicle 1.44119e-015 -1.94809e-014
lhumerus -27.8254 4.85195 83.7634
lradius 17.0849
lwrist -11.7721
lhand -22.0159 -13.1576
lfingers 7.12502
lthumb 4.39342 16.7768
rfemur -24.8929 8.27864 18.8193
rtibia 7.10302
rfoot -17.7617 -4.55974
rtoes -34.1233
lfemur -25.151 -10.2605 -16.9378
ltibia 8.2168
lfoot -7.77581 1.96563
ltoes -45.5249
6
root 9.29653 16.3282 18.801 -153.037 -1.49524 179.696
lowerback -29.757 -1.21141 -6.0893
upperback -2.67129 -0.477348 -0.189611
thorax 12.66 -0.910019 2.8306
lowerneck 0.0298545 0.139541 -4.2073
upperneck 8.95239 -0.645176 6.86565
head 2.93421 -0.422029 2.99077
rclavicle -1.83876e-015 7.55382e-015
rhumerus -34.0502 -26.0848 -76.4865
rradius 23.8675
rwrist 8.58142
rhand -7.79816 -44.9375
rfingers 7.12502
rthumb 18.103 -74.1151
lclavicle -1.83876e-015 7.55382e-015
lhumerus -27.8462 5.23305 83.663
lradius 17.0419
lwrist -12.0666
lhand -22.352 -13.2685
lfingers 7.12502
lthumb 4.06887 16.6724
rfemur -24.8575 8.41055 18.694
rtibia 7.05524
rfoot -17.7776 -4.53947
rtoes -33.2671
lfemur -25.1309 -10.3413 -16.9632
ltibia 8.2374
lfoot -7.82547 1.97777
ltoes -44.6325
7
root 9.29482 16.3282 18.8 -153.02 -1.51161 179.656
lowerback -29.6854 -1.22335 -6.11358
upperback -2.72959 -0.498909 -0.20178
thorax 12.5632 -0.920582 2.8231
lowerneck 0.0336805 0.139609 -4.20433
upperneck 8.96409 -0.646226 6.8586
head 2.93741 -0.423046 2.98789
rclavicle -5.31749e-015 -1.15295e-014
rhumerus -34.1388 -26.0436 -76.4745
rradius 23.9012
rwrist 8.57652
rhand -7.83037 -45.0112
rfingers 7.12502
rthumb 18.0721 -74.1916
lclavicle -5.31749e-015 -1.15295e-014
lhumerus -27.9027 5.43999 83.5659
lradius 16.9461
lwrist -12.3554
lhand -22.7006 -13.3185
lfingers 7.12502
lthumb 3.73224 16.6285
rfemur -24.8504 8.56703 18.5555
rtibia 7.01391
rfoot -17.7974 -4.52351
rtoes -32.1743
lfemur -25.1535 -10.3576 -17.0129
ltibia 8.22552
lfoot -7.77367 1.99856
ltoes -44.7955
8
root 9.29437 16.3283 18.7988 -152.975 -1.49968 179.701
lowerback -29.7067 -1.20731 -6.07425
upperback -2.76245 -0.499624 -0.185034
thorax 12.5357 -0.920699 2.81893
lowerneck 0.039745 0.142097 -4.21266
upperneck 8.96568 -0.643023 6.8577
head 2.93669 -0.42195 2.98919
rclavicle 1.04362e-015 3.57812e-015
rhumerus -34.1611 -25.9918 -76.4653
rradius 23.916
rwrist 8.51757
rhand -7.81592 -45.1252
rfingers 7.12502
rthumb 18.086 -74.3043
lclavicle 1.04362e-015 3.57812e-015
lhumerus -27.8997 5.56318 83.5309
lradius 16.8311
lwrist -12.5016
lhand -22.736 -13.3349
lfingers 7.12502
lthumb 3.69803 16.6127
rfemur -24.8807 8.56724 18.6379
rtibia 6.99909
rfoot -17.7473 -4.58786
rtoes -32.821
lfemur -25.1573 -10.4803 -16.924
ltibia 8.08383
lfoot -7.63377 2.17701
ltoes -44.8486
9
root 9.29373 16.3287 18.7982 -152.958 -1.51827 179.673
lowerback -29.7095 -1.21268 -6.09659
upperback -2.77048 -0.49908 -0.204298
thorax 12.5271 -0.921733 2.81021
lowerneck 0.0633714 0.141472 -4.18919
upperneck 8.96028 -0.645868 6.85653
head 2.93034 -0.42347 2.98397
rclavicle -8.39865e-015 1.78906e-014
rhumerus -34.1949 -26.0513 -76.4463
rradius 23.9248
rwrist 8.53693
rhand -7.78976 -45.0801
rfingers 7.12502
rthumb 18.1111 -74.2569
lclavicle -8.39865e-015 1.78906e-014
lhumerus -27.8824 5.57259 83.5096
lradius 16.7719
lwrist -12.5667
lhand -22.8081 -13.4767
lfingers 7.12502
lthumb 3.62845 16.4722
rfemur -24.8597 8.49976 18.6439
rtibia 6.93345
rfoot -17.6805 -4.71707
rtoes -33.5607
lfemur -25.1562 -10.6944 -16.8995
ltibia 7.98109
lfoot -7.51661 2.33494
ltoes -45.1283
10
root 9.29362 16.3283 18.7977 -152.938 -1.48616 179.621
lowerback -29.7243 -1.20767 -6.16291
upperback -2.77316 -0.467978 -0.238467
thorax 12.5265 -0.911277 2.82042
lowerneck 0.0654397 0.138761 -4.15958
upperneck 8.94989 -0.649585 6.85591
head 2.92632 -0.424341 2.97789
rclavicle -4.07509e-015 -1.70955e-014
rhumerus -34.2918 -26.1249 -76.4335
rradius 24.0311
rwrist 8.57001
rhand -7.77726 -45.1622
rfingers 7.12502
rthumb 18.1231 -74.3378
lclavicle -4.07509e-015 -1.70955e-014
lhumerus -27.877 5.45098 83.5254
lradius 16.7823
lwrist -12.525
lhand -22.8345 -13.5709
lfingers 7.12502
lthumb 3.6029 16.3784
rfemur -24.8924 8.6098 18.5101
rtibia 6.92262
rfoot -17.7114 -4.67792
rtoes -32.6815
lfemur -25.2043 -10.5411 -16.9916
ltibia 8.07542
lfoot -7.60469 2.08939
ltoes -44.8258
11
root 9.29383 16.3285 18.7973 -152.908 -1.43219 179.647
lowerback -29.7572 -1.18506 -6.16107
upperback -2.77226 -0.438071 -0.241372
thorax 12.5392 -0.898605 2.82695
lowerneck 0.0414137 0.134894 -4.13246
upperneck 8.94019 -0.652848 6.8533
head 2.9274 -0.424228 2.97185
rclavicle -4.17448e-015 -1.90833e-014
rhumerus -34.3334 -26.0319 -76.49
rradius 24.1639
rwrist 8.45508
rhand -7.75722 -45.3583
rfingers 7.12502
rthumb 18.1424 -74.5322
lclavicle -4.17448e-015 -1.90833e-014
lhumerus -27.8673 5.28075 83.5664
lradius 16.8292
lwrist -12.3683
lhand -22.781 -13.4669
lfingers 7.12502
lthumb 3.65454 16.4816
rfemur -24.9479 8.77126 18.4596
rtibia 6.91074
rfoot -17.7413 -4.60421
rtoes -31.8855
lfemur -25.2333 -10.3992 -16.9734
ltibia 8.11281
lfoot -7.66498 1.91483
ltoes -43.981
12
root 9.29359 16.329 18.7962 -152.918 -1.43484 179.682
lowerback -29.7442 -1.1774 -6.12874
upperback -2.7706 -0.439346 -0.232119
thorax 12.536 -0.897107 2.81935
lowerneck 0.0493688 0.132696 -4.11253
upperneck 8.93397 -0.656246 6.84975
head 2.92374 -0.425625 2.96661
rclavicle -7.05686e-015 3.97569e-015
rhumerus -34.3263 -25.9515 -76.5211
rradius 24.1852
rwrist 8.35809
rhand -7.75723 -45.4301
rfingers 7.12502
rthumb 18.1424 -74.604
lclavicle -7.05686e-015 3.97569e-015
lhumerus -27.8679 5.13483 83.6064
lradius 16.8645
lwrist -12.1933
lhand -22.8088 -13.3817
lfingers 7.12502
lthumb 3.62773 16.5671
rfemur -24.928 8.78467 18.5016
rtibia 6.93378
rfoot -17.8039 -4.64241
rtoes -32.0681
lfemur -25.2107 -10.3342 -16.9593
ltibia 8.09818
lfoot -7.6562 1.91931
ltoes -44.6917
13
root 9.29266 16.3293 18.7939 -152.946 -1.50651 179.738
lowerback -29.7236 -1.15333 -6.04398
upperback -2.78673 -0.437512 -0.244358
thorax 12.5091 -0.891342 2.76149
lowerneck 0.0989441 0.125059 -4.07977
upperneck 8.93187 -0.671297 6.84942
head 2.91435 -0.433947 2.95947
rclavicle 1.83876e-015 -7.55382e-015
rhumerus -34.4157 -25.998 -76.511
rradius 24.1958
rwrist 8.32127
rhand -7.82568 -45.4744
rfingers 7.12502
rthumb 18.0766 -74.6544
lclavicle 1.83876e-015 -7.55382e-015
lhumerus -27.9255 4.96252 83.6316
lradius 16.88
lwrist -12.111
lhand -22.9356 -13.4441
lfingers 7.12502
lthumb 3.5053 16.5069
rfemur -24.9008 8.75314 18.5942
rtibia 7.02726
rfoot -17.9246 -4.66713
rtoes -32.1967
lfemur -25.2226 -10.2104 -16.9377
ltibia 8.21202
lfoot -7.78972 1.82632
ltoes -45.2781
14
root 9.2916 16.3297 18.7915 -152.996 -1.55059 179.72
lowerback -29.6947 -1.1469 -6.03469
upperback -2.78492 -0.4287 -0.274845
thorax 12.4973 -0.885446 2.72753
lowerneck 0.158076 0.116988 -4.056
upperneck 8.92921 -0.687378 6.85141
head 2.90318 -0.443302 2.95472
rclavicle -6.70898e-015 2.38542e-015
rhumerus -34.5008 -25.9595 -76.5444
rradius 24.2558
rwrist 8.20136
rhand -7.89064 -45.512
rfingers 7.12502
rthumb 18.0141 -74.6977
lclavicle -6.70898e-015 2.38542e-015
lhumerus -27.9715 4.80829 83.6631
lradius 16.8985
lwrist -12.0398
lhand -22.9912 -13.4411
lfingers 7.12502
lthumb 3.45158 16.5107
rfemur -24.8114 8.70844 18.6101
rtibia 6.99834
rfoot -17.8689 -4.69261
rtoes -32.3676
lfemur -25.1865 -10.1986 -16.9706
ltibia 8.27815
lfoot -7.83006 1.75023
ltoes -44.909
15
root 9.29109 16.3298 18.79 -153.037 -1.53681 179.641
lowerback -29.6603 -1.19842 -6.11192
upperback -2.75288 -0.466319 -0.260907
thorax 12.5215 -0.904882 2.77095
lowerneck 0.150021 0.133364 -4.11819
upperneck 8.93244 -0.66248 6.85278
head 2.90489 -0.432329 2.96762
rclavicle -9.14409e-015 1.51076e-014
rhumerus -34.4246 -25.7901 -76.5985
rradius 24.2893
rwrist 8.09255
rhand -7.94072 -45.5743
rfingers 7.12502
rthumb 17.9659 -74.7645
lclavicle -9.14409e-015 1.51076e-014
lhumerus -27.9494 4.94239 83.6622
lradius 16.9184
lwrist -12.0583
lhand -22.9237 -13.4245
lfingers 7.12502
lthumb 3.51677 16.5262
rfemur -24.712 8.68553 18.5301
rtibia 6.90106
rfoot -17.7561 -4.74184
rtoes -32.6041
lfemur -25.1295 -10.2457 -17.0729
ltibia 8.3007
lfoot -7.84782 1.8003
ltoes -44.3082
